<?xml version="1.0" encoding="utf-8" ?>
<svg xmlns="http://www.w3.org/2000/svg" xmlns:xlink="http://www.w3.org/1999/xlink" width="32" height="32">
	<path fill="#4894FF" transform="scale(0.03125 0.03125)" d="M504.481 43.707Q515.971 43.5213 527.456 43.8995Q538.941 44.2777 550.393 45.219Q561.846 46.1602 573.239 47.6623Q584.631 49.1643 595.937 51.2235Q607.242 53.2826 618.432 55.894Q629.623 58.5054 640.672 61.6627Q651.721 64.8199 662.602 68.5155Q673.483 72.2111 684.169 76.436Q694.855 80.661 705.322 85.4052Q715.788 90.1494 726.009 95.4014Q736.23 100.653 746.18 106.4Q756.131 112.148 765.788 118.376Q775.445 124.604 784.785 131.299Q794.125 137.994 803.125 145.139Q812.125 152.284 820.763 159.861Q829.402 167.439 837.658 175.432Q845.914 183.424 853.769 191.812Q861.623 200.201 869.056 208.964Q876.49 217.727 883.484 226.844Q890.478 235.962 897.017 245.412Q903.556 254.861 909.623 264.62Q915.69 274.379 921.271 284.424Q926.852 294.469 931.933 304.776Q937.015 315.082 941.585 325.626Q946.154 336.17 950.201 346.925Q954.248 357.68 957.762 368.621Q961.277 379.561 964.25 390.661Q967.223 401.761 969.648 412.994Q972.073 424.226 973.945 435.564Q975.816 446.902 977.128 458.318Q978.441 469.734 979.192 481.201Q979.943 492.667 980.13 504.157Q980.317 515.647 979.941 527.132Q979.564 538.617 978.625 550.07Q977.685 561.522 976.185 572.915Q974.684 584.308 972.627 595.614Q970.569 606.919 967.959 618.11Q965.35 629.301 962.194 640.351Q959.038 651.4 955.344 662.282Q951.65 673.163 947.427 683.85Q943.204 694.537 938.461 705.004Q933.718 715.471 928.468 725.692Q923.217 735.914 917.472 745.866Q911.726 755.817 905.499 765.475Q899.272 775.133 892.578 784.474Q885.885 793.814 878.742 802.815Q871.598 811.816 864.021 820.456Q856.445 829.096 848.453 837.353Q840.462 845.611 832.075 853.466Q823.688 861.322 814.926 868.756Q806.164 876.191 797.047 883.187Q787.931 890.182 778.482 896.722Q769.034 903.262 759.276 909.331Q749.517 915.4 739.473 920.982Q729.429 926.565 719.123 931.648Q708.817 936.73 698.274 941.302Q687.731 945.873 676.977 949.921Q666.222 953.97 655.282 957.486Q644.342 961.001 633.242 963.976Q622.143 966.951 610.911 969.378Q599.679 971.805 588.341 973.678Q577.004 975.55 565.588 976.865Q554.172 978.179 542.705 978.931Q531.239 979.684 519.749 979.873Q508.257 980.062 496.77 979.687Q485.283 979.312 473.828 978.374Q462.373 977.435 450.977 975.936Q439.582 974.437 428.274 972.38Q416.966 970.323 405.773 967.714Q394.58 965.105 383.528 961.95Q372.476 958.795 361.593 955.101Q350.709 951.407 340.02 947.184Q329.33 942.96 318.861 938.217Q308.392 933.474 298.168 928.224Q287.945 922.973 277.991 917.226Q268.037 911.48 258.377 905.252Q248.717 899.024 239.375 892.33Q230.032 885.636 221.029 878.491Q212.026 871.346 203.385 863.768Q194.744 856.19 186.485 848.198Q178.226 840.205 170.369 831.816Q162.512 823.428 155.076 814.664Q147.64 805.9 140.643 796.781Q133.647 787.663 127.106 778.212Q120.565 768.762 114.496 759.002Q108.426 749.241 102.843 739.195Q97.2605 729.149 92.1773 718.841Q87.094 708.532 82.5228 697.987Q77.9515 687.442 73.9032 676.685Q69.8549 665.928 66.3393 654.986Q62.8238 644.043 59.8494 632.941Q56.8751 621.84 54.4491 610.605Q52.0232 599.371 50.1514 588.031Q48.2797 576.691 46.9667 565.273Q45.6536 553.854 44.9025 542.386Q44.1514 530.917 43.964 519.425Q43.7766 507.933 44.1533 496.446Q44.53 484.959 45.47 473.504Q46.41 462.049 47.911 450.654Q49.4119 439.259 51.4703 427.951Q53.5286 416.644 56.1393 405.451Q58.7501 394.258 61.9069 383.207Q65.0638 372.155 68.7592 361.272Q72.4545 350.389 76.6795 339.7Q80.9045 329.012 85.6489 318.543Q90.3933 308.075 95.6457 297.852Q100.898 287.629 106.646 277.676Q112.394 267.723 118.623 258.064Q124.852 248.405 131.548 239.063Q138.243 229.722 145.389 220.72Q152.535 211.718 160.115 203.078Q167.694 194.438 175.688 186.18Q183.682 177.922 192.072 170.066Q200.461 162.211 209.226 154.776Q217.991 147.342 227.111 140.346Q236.23 133.351 245.682 126.811Q255.133 120.272 264.894 114.204Q274.655 108.136 284.702 102.555Q294.75 96.9731 305.058 91.8913Q315.367 86.8096 325.913 82.2399Q336.459 77.6701 347.217 73.6234Q357.974 69.5766 368.917 66.0627Q379.86 62.5487 390.962 59.576Q402.065 56.6032 413.299 54.1789Q424.534 51.7546 435.874 49.8845Q447.215 48.0144 458.633 46.703Q470.051 45.3917 481.52 44.6422Q492.989 43.8927 504.481 43.707Z"/>
	<defs>
		<linearGradient id="gradient_0" gradientUnits="userSpaceOnUse" x1="832.06079" y1="776.35779" x2="189.92917" y2="248.22273">
			<stop offset="0" stop-color="#0029A3"/>
			<stop offset="1" stop-color="#015FB5"/>
		</linearGradient>
	</defs>
	<path fill="url(#gradient_0)" transform="scale(0.03125 0.03125)" d="M495.903 96.2109Q506.121 95.8346 516.346 95.9601Q526.571 96.0856 536.777 96.7125Q546.983 97.3395 557.146 98.4664Q567.309 99.5934 577.404 101.218Q587.5 102.842 597.504 104.959Q607.507 107.077 617.395 109.682Q627.283 112.288 637.031 115.376Q646.779 118.464 656.364 122.026Q665.948 125.588 675.347 129.616Q684.745 133.645 693.935 138.129Q703.125 142.613 712.083 147.543Q721.041 152.473 729.747 157.837Q738.453 163.2 746.885 168.984Q755.317 174.768 763.456 180.959Q771.594 187.15 779.419 193.733Q787.243 200.315 794.736 207.274Q802.228 214.232 809.37 221.55Q816.512 228.868 823.286 236.527Q830.061 244.187 836.451 252.169Q842.841 260.152 848.833 268.438Q854.824 276.725 860.401 285.295Q865.978 293.865 871.128 302.699Q876.279 311.533 880.989 320.608Q885.7 329.684 889.959 338.98Q894.219 348.276 898.017 357.77Q901.816 367.263 905.144 376.932Q908.472 386.6 911.321 396.421Q914.171 406.241 916.536 416.189Q918.9 426.137 920.774 436.189Q922.647 446.242 924.026 456.374Q925.404 466.506 926.283 476.693Q927.163 486.881 927.541 497.099Q927.92 507.317 927.796 517.542Q927.673 527.767 927.048 537.973Q926.424 548.179 925.299 558.342Q924.174 568.506 922.552 578.601Q920.93 588.697 918.815 598.702Q916.7 608.706 914.096 618.594Q911.493 628.482 908.407 638.231Q905.321 647.98 901.761 657.565Q898.201 667.151 894.175 676.55Q890.149 685.95 885.667 695.14Q881.184 704.331 876.256 713.29Q871.328 722.25 865.967 730.957Q860.605 739.664 854.823 748.097Q849.041 756.531 842.852 764.67Q836.663 772.81 830.082 780.636Q823.501 788.462 816.544 795.956Q809.587 803.45 802.271 810.593Q794.955 817.737 787.297 824.513Q779.639 831.289 771.658 837.681Q763.677 844.073 755.391 850.066Q747.106 856.059 738.537 861.638Q729.968 867.217 721.135 872.37Q712.303 877.522 703.228 882.234Q694.154 886.947 684.859 891.208Q675.564 895.47 666.071 899.27Q656.578 903.071 646.91 906.401Q637.242 909.731 627.423 912.583Q617.603 915.435 607.656 917.802Q597.708 920.169 587.656 922.044Q577.604 923.92 567.473 925.301Q557.341 926.681 547.154 927.563Q536.966 928.444 526.748 928.825Q516.527 929.206 506.299 929.085Q496.072 928.964 485.863 928.341Q475.653 927.718 465.487 926.594Q455.321 925.471 445.222 923.851Q435.123 922.23 425.116 920.115Q415.108 918.001 405.217 915.398Q395.325 912.795 385.574 909.71Q375.822 906.625 366.233 903.065Q356.644 899.505 347.242 895.478Q337.84 891.452 328.646 886.969Q319.453 882.486 310.49 877.557Q301.528 872.629 292.818 867.266Q284.109 861.904 275.672 856.12Q267.236 850.337 259.094 844.146Q250.952 837.956 243.124 831.373Q235.295 824.79 227.799 817.831Q220.303 810.873 213.158 803.554Q206.012 796.236 199.235 788.576Q192.457 780.915 186.063 772.932Q179.67 764.948 173.676 756.66Q167.682 748.373 162.101 739.801Q156.521 731.229 151.368 722.393Q146.216 713.558 141.503 704.48Q136.79 695.403 132.528 686.105Q128.266 676.807 124.466 667.311Q120.665 657.815 117.335 648.144Q114.006 638.473 111.154 628.65Q108.303 618.827 105.938 608.876Q103.572 598.925 101.697 588.87Q99.8227 578.815 98.4439 568.681Q97.0651 558.546 96.1853 548.355Q95.3055 538.165 94.9268 527.944Q94.5482 517.723 94.6716 507.495Q94.795 497.268 95.4201 487.059Q96.0453 476.85 97.1707 466.684Q98.2961 456.517 99.9191 446.419Q101.542 436.32 103.659 426.313Q105.775 416.307 108.38 406.416Q110.985 396.525 114.073 386.774Q117.16 377.023 120.722 367.435Q124.285 357.847 128.313 348.445Q132.341 339.044 136.826 329.851Q141.311 320.659 146.242 311.698Q151.173 302.736 156.537 294.028Q161.901 285.319 167.687 276.884Q173.472 268.45 179.665 260.309Q185.857 252.168 192.441 244.341Q199.026 236.514 205.986 229.02Q212.947 221.525 220.267 214.381Q227.587 207.238 235.248 200.461Q242.91 193.685 250.895 187.294Q258.88 180.902 267.169 174.909Q275.458 168.917 284.031 163.339Q292.605 157.761 301.441 152.61Q310.278 147.459 319.356 142.748Q328.435 138.037 337.734 133.777Q347.033 129.517 356.53 125.719Q366.027 121.921 375.698 118.593Q385.37 115.265 395.194 112.416Q405.017 109.567 414.968 107.204Q424.92 104.84 434.975 102.968Q445.03 101.096 455.166 99.719Q465.301 98.3424 475.491 97.4649Q485.682 96.5873 495.903 96.2109Z"/>
	<path fill="#4894FF" transform="scale(0.03125 0.03125)" d="M145.257 641.324Q142.814 634.518 140.627 627.625Q138.439 620.732 136.511 613.763Q134.582 606.793 132.915 599.757Q131.248 592.72 129.845 585.626Q128.442 578.532 127.304 571.391Q126.167 564.25 125.297 557.071Q124.426 549.892 123.825 542.686Q123.223 535.479 122.891 528.256Q122.558 521.032 122.496 513.801Q122.434 506.569 122.641 499.341Q122.848 492.113 123.326 484.897Q123.803 477.681 124.549 470.489Q125.295 463.296 126.309 456.136Q127.323 448.976 128.603 441.859Q129.884 434.742 131.429 427.677Q132.975 420.613 134.782 413.611Q136.59 406.61 138.658 399.68Q140.726 392.751 143.051 385.903Q145.376 379.056 147.955 372.3Q150.534 365.544 153.364 358.889Q156.193 352.234 159.269 345.69Q162.345 339.145 165.663 332.72Q168.981 326.294 172.536 319.998Q176.091 313.701 179.879 307.541Q183.667 301.381 187.682 295.367Q191.698 289.352 195.935 283.492Q200.171 277.632 204.624 271.934Q209.077 266.236 213.739 260.708Q218.401 255.18 223.266 249.83Q228.132 244.48 233.193 239.316Q238.255 234.151 243.506 229.179Q248.756 224.207 254.189 219.434Q259.622 214.661 265.229 210.095Q270.836 205.528 276.609 201.174Q282.383 196.82 288.315 192.684Q294.247 188.548 300.329 184.637Q306.412 180.725 312.636 177.044Q318.86 173.362 325.217 169.915Q331.574 166.469 338.055 163.261Q344.537 160.054 351.133 157.091Q357.73 154.128 364.432 151.414Q371.134 148.699 377.934 146.236Q384.733 143.773 391.619 141.566Q398.505 139.359 405.469 137.41Q412.433 135.462 419.465 133.774Q426.497 132.087 433.587 130.663Q440.676 129.239 447.814 128.081Q454.953 126.923 462.129 126.032Q469.305 125.141 476.51 124.518Q483.714 123.896 490.937 123.543Q498.16 123.19 505.391 123.106Q512.622 123.023 519.851 123.209Q527.08 123.396 534.297 123.852Q541.514 124.308 548.709 125.034Q555.904 125.759 563.066 126.752Q570.229 127.746 577.35 129.006Q584.471 130.266 591.54 131.79Q598.608 133.315 605.615 135.103Q612.622 136.89 619.558 138.938Q626.493 140.986 633.347 143.291Q640.201 145.597 646.965 148.156Q653.728 150.716 660.391 153.526Q667.054 156.336 673.607 159.393Q680.161 162.45 686.596 165.749Q697.122 171.146 707.3 177.175Q715.489 182.027 723.43 187.275Q742.205 199.683 759.417 214.181Q773.149 225.748 785.753 238.535Q798.356 251.323 809.723 265.221Q822.576 280.937 833.715 297.911Q839.074 306.077 844.015 314.503Q850.869 326.19 856.889 338.327Q861.598 347.82 865.78 357.557Q870.594 368.764 874.694 380.252Q877.108 387.016 879.27 393.865Q881.431 400.714 883.337 407.639Q885.244 414.563 886.892 421.553Q888.54 428.544 889.928 435.59Q891.316 442.637 892.442 449.73Q893.568 456.823 894.43 463.953Q895.292 471.083 895.889 478.24Q896.486 485.398 896.818 492.572Q897.15 499.746 897.215 506.928Q897.28 514.11 897.08 521.289Q896.879 528.468 896.412 535.635Q895.945 542.802 895.213 549.946Q894.481 557.091 893.484 564.204Q892.488 571.316 891.228 578.387Q889.969 585.458 888.448 592.477Q886.927 599.496 885.147 606.454Q883.368 613.412 881.331 620.299Q879.295 627.186 877.004 633.993Q874.714 640.8 872.173 647.518Q869.631 654.235 866.843 660.854Q864.054 667.472 861.023 673.983Q857.991 680.494 854.72 686.888Q851.449 693.281 847.943 699.549Q844.437 705.818 840.701 711.952Q836.965 718.086 833.005 724.077Q829.044 730.068 824.864 735.908Q820.684 741.749 816.291 747.43Q811.897 753.111 807.296 758.626Q802.695 764.141 797.893 769.481Q793.09 774.821 788.093 779.98Q783.096 785.138 777.911 790.108Q772.726 795.078 767.361 799.852Q761.996 804.626 756.457 809.198Q750.918 813.77 745.214 818.134Q739.509 822.497 733.647 826.646Q727.785 830.796 721.773 834.725Q715.76 838.654 709.607 842.357Q703.453 846.06 697.167 849.533Q690.88 853.006 684.469 856.243Q678.058 859.481 671.532 862.478Q665.005 865.476 658.372 868.229Q651.739 870.983 645.008 873.488Q638.277 875.994 631.458 878.249Q624.639 880.503 617.741 882.503Q610.844 884.503 603.876 886.247Q596.909 887.99 589.882 889.474Q582.855 890.957 575.778 892.179Q568.7 893.401 561.583 894.361Q554.465 895.32 547.317 896.014Q540.168 896.709 532.999 897.138Q525.83 897.567 518.65 897.73Q511.47 897.893 504.288 897.79Q497.107 897.686 489.934 897.317Q482.762 896.948 475.608 896.313Q468.454 895.678 461.329 894.778Q454.203 893.878 447.116 892.715Q440.029 891.552 432.99 890.127Q425.951 888.701 418.969 887.016Q411.987 885.331 405.073 883.389Q398.159 881.446 391.321 879.248Q384.484 877.051 377.733 874.601Q370.981 872.151 364.325 869.453Q357.669 866.755 351.118 863.812Q344.567 860.869 338.129 857.685Q325.153 851.268 312.693 843.901Q304.912 839.3 297.354 834.341Q280.666 823.392 265.192 810.786Q251.33 799.493 238.567 786.972Q225.804 774.45 214.249 760.806Q199.684 743.607 187.211 724.835Q182.423 717.629 177.962 710.217Q168.993 695.315 161.395 679.67Q157.521 671.693 154.017 663.547Q149.294 652.571 145.257 641.324Z"/>
	<path fill="#10A8FE" transform="scale(0.03125 0.03125)" d="M145.257 641.324Q142.814 634.518 140.627 627.625Q138.439 620.732 136.511 613.763Q134.582 606.793 132.915 599.757Q131.248 592.72 129.845 585.626Q128.442 578.532 127.304 571.391Q126.167 564.25 125.297 557.071Q124.426 549.892 123.825 542.686Q123.223 535.479 122.891 528.256Q122.558 521.032 122.496 513.801Q122.434 506.569 122.641 499.341Q122.848 492.113 123.326 484.897Q123.803 477.681 124.549 470.489Q125.295 463.296 126.309 456.136Q127.323 448.976 128.603 441.859Q129.884 434.742 131.429 427.677Q132.975 420.613 134.782 413.611Q136.59 406.61 138.658 399.68Q140.726 392.751 143.051 385.903Q145.376 379.056 147.955 372.3Q150.534 365.544 153.364 358.889Q156.193 352.234 159.269 345.69Q162.345 339.145 165.663 332.72Q168.981 326.294 172.536 319.998Q176.091 313.701 179.879 307.541Q183.667 301.381 187.682 295.367Q191.698 289.352 195.935 283.492Q200.171 277.632 204.624 271.934Q209.077 266.236 213.739 260.708Q218.401 255.18 223.266 249.83Q228.132 244.48 233.193 239.316Q238.255 234.151 243.506 229.179Q248.756 224.207 254.189 219.434Q259.622 214.661 265.229 210.095Q270.836 205.528 276.609 201.174Q282.383 196.82 288.315 192.684Q294.247 188.548 300.329 184.637Q306.412 180.725 312.636 177.044Q318.86 173.362 325.217 169.915Q331.574 166.469 338.055 163.261Q344.537 160.054 351.133 157.091Q357.73 154.128 364.432 151.414Q371.134 148.699 377.934 146.236Q384.733 143.773 391.619 141.566Q398.505 139.359 405.469 137.41Q412.433 135.462 419.465 133.774Q426.497 132.087 433.587 130.663Q440.676 129.239 447.814 128.081Q454.953 126.923 462.129 126.032Q469.305 125.141 476.51 124.518Q483.714 123.896 490.937 123.543Q498.16 123.19 505.391 123.106Q512.622 123.023 519.851 123.209Q527.08 123.396 534.297 123.852Q541.514 124.308 548.709 125.034Q555.904 125.759 563.066 126.752Q570.229 127.746 577.35 129.006Q584.471 130.266 591.54 131.79Q598.608 133.315 605.615 135.103Q612.622 136.89 619.558 138.938Q626.493 140.986 633.347 143.291Q640.201 145.597 646.965 148.156Q653.728 150.716 660.391 153.526Q667.054 156.336 673.607 159.393Q680.161 162.45 686.596 165.749Q697.122 171.146 707.3 177.175Q715.489 182.027 723.43 187.275Q742.205 199.683 759.417 214.181Q773.149 225.748 785.753 238.535Q798.356 251.323 809.723 265.221C804.085 268.687 798.736 275.538 793.993 280.265L755.647 318.12C750.146 323.61 739.786 335.061 734.101 338.986C728.358 333.072 723.553 326.303 717.891 320.3C707.264 309.034 695.558 299.057 683.689 289.145C670.994 280.534 658.455 272.395 644.851 265.29C639.048 263.066 633.408 260.133 627.995 257.09C620.049 253.438 612.024 250.388 603.763 247.537C527.619 223.814 452.891 228.551 381.893 265.86Q378.823 267.477 375.793 269.169Q372.764 270.861 369.777 272.626Q366.789 274.391 363.846 276.229Q360.903 278.067 358.005 279.976Q355.108 281.885 352.257 283.864Q349.407 285.843 346.607 287.891Q343.806 289.94 341.056 292.056Q338.306 294.172 335.608 296.354Q332.911 298.537 330.268 300.785Q327.624 303.033 325.037 305.344Q322.449 307.656 319.919 310.031Q317.388 312.405 314.916 314.84Q312.445 317.276 310.033 319.771Q307.622 322.266 305.272 324.819Q302.922 327.372 300.636 329.982Q298.349 332.592 296.127 335.257Q293.905 337.922 291.748 340.64Q289.592 343.358 287.502 346.129Q285.413 348.899 283.392 351.719Q281.37 354.54 279.419 357.409Q277.467 360.278 275.586 363.194Q273.705 366.109 271.896 369.07Q270.087 372.031 268.35 375.035Q266.614 378.04 264.952 381.085Q263.289 384.131 261.702 387.217Q260.114 390.302 258.603 393.425Q257.091 396.549 255.656 399.708Q254.221 402.867 252.864 406.061Q251.506 409.254 250.227 412.48Q248.948 415.705 247.749 418.961Q246.549 422.217 245.429 425.501Q244.309 428.785 243.27 432.096Q242.134 435.83 241.102 439.594Q240.07 443.357 239.143 447.148Q238.216 450.939 237.395 454.755Q236.573 458.57 235.858 462.407Q235.143 466.243 234.534 470.098Q233.925 473.953 233.424 477.824Q232.922 481.694 232.528 485.577Q232.135 489.459 231.849 493.352Q231.563 497.244 231.385 501.143Q231.207 505.041 231.137 508.943Q231.067 512.845 231.106 516.748Q231.144 520.651 231.291 524.55Q231.438 528.45 231.693 532.345Q231.948 536.239 232.311 540.125Q232.674 544.011 233.145 547.885Q233.615 551.759 234.193 555.619C235.475 563.653 236.623 571.798 238.843 579.639C240.747 586.101 242.747 592.552 244.51 599.053C248.338 609.904 252.809 620.484 257.396 631.032Q261.901 638.81 265.733 646.941C273.436 659.764 281.269 672.344 290.136 684.412C282.124 693.46 273.467 701.637 264.817 710.059C256.324 718.329 247.974 726.755 239.595 735.14Q232.094 742.578 224.771 750.19C221.403 753.718 218.121 757.843 214.249 760.806Q199.684 743.607 187.211 724.835Q182.423 717.629 177.962 710.217Q168.993 695.315 161.395 679.67Q157.521 671.693 154.017 663.547Q149.294 652.571 145.257 641.324Z"/>
	<path fill="#1EBEFD" transform="scale(0.03125 0.03125)" d="M161.395 679.67Q186.287 655.688 210.676 631.195C219.302 622.509 227.411 613.331 236.421 605.03C238.7 602.929 241.474 599.927 244.51 599.053C248.338 609.904 252.809 620.484 257.396 631.032Q261.901 638.81 265.733 646.941C273.436 659.764 281.269 672.344 290.136 684.412C282.124 693.46 273.467 701.637 264.817 710.059C256.324 718.329 247.974 726.755 239.595 735.14Q232.094 742.578 224.771 750.19C221.403 753.718 218.121 757.843 214.249 760.806Q199.684 743.607 187.211 724.835Q182.423 717.629 177.962 710.217Q168.993 695.315 161.395 679.67Z"/>
	<path fill="#1EBEFD" transform="scale(0.03125 0.03125)" d="M187.211 724.835C197.54 716.231 206.676 706.269 216.065 696.673L246.884 665.592C253.099 659.273 258.966 652.694 265.733 646.941C273.436 659.764 281.269 672.344 290.136 684.412C282.124 693.46 273.467 701.637 264.817 710.059C256.324 718.329 247.974 726.755 239.595 735.14Q232.094 742.578 224.771 750.19C221.403 753.718 218.121 757.843 214.249 760.806Q199.684 743.607 187.211 724.835Z"/>
	<path fill="#10A8FE" transform="scale(0.03125 0.03125)" d="M257.396 631.032Q261.901 638.81 265.733 646.941C258.966 652.694 253.099 659.273 246.884 665.592L216.065 696.673C206.676 706.269 197.54 716.231 187.211 724.835Q182.423 717.629 177.962 710.217C178.999 709.769 179.825 709.221 180.65 708.45C190.861 698.91 200.396 688.34 210.345 678.488C221.61 667.334 233.448 656.716 244.512 645.369Q251.299 638.51 257.396 631.032Z"/>
	<path fill="#10A8FE" transform="scale(0.03125 0.03125)" d="M759.417 214.181Q773.149 225.748 785.753 238.535Q798.356 251.323 809.723 265.221C804.085 268.687 798.736 275.538 793.993 280.265L755.647 318.12C750.146 323.61 739.786 335.061 734.101 338.986C728.358 333.072 723.553 326.303 717.891 320.3C707.264 309.034 695.558 299.057 683.689 289.145C688.6 286.112 756.767 218.604 759.417 214.181Z"/>
	<path fill="#1EBEFD" transform="scale(0.03125 0.03125)" d="M723.43 187.275Q742.205 199.683 759.417 214.181C756.767 218.604 688.6 286.112 683.689 289.145C670.994 280.534 658.455 272.395 644.851 265.29C646.955 262.669 649.926 260.33 652.356 257.971Q660.98 249.629 669.469 241.148Q687.745 222.536 706.34 204.243C712.025 198.588 717.435 192.601 723.43 187.275Z"/>
	<path fill="#1EBEFD" transform="scale(0.03125 0.03125)" d="M686.596 165.749Q697.122 171.146 707.3 177.175Q715.489 182.027 723.43 187.275C717.435 192.601 712.025 198.588 706.34 204.243Q687.745 222.536 669.469 241.148Q660.98 249.629 652.356 257.971C649.926 260.33 646.955 262.669 644.851 265.29C639.048 263.066 633.408 260.133 627.995 257.09C620.049 253.438 612.024 250.388 603.763 247.537C612.883 239.623 622.663 228.555 631.456 219.789Q658.762 192.499 686.596 165.749Z"/>
	<path fill="#10A8FE" transform="scale(0.03125 0.03125)" d="M707.3 177.175Q715.489 182.027 723.43 187.275C717.435 192.601 712.025 198.588 706.34 204.243Q687.745 222.536 669.469 241.148Q660.98 249.629 652.356 257.971C649.926 260.33 646.955 262.669 644.851 265.29C639.048 263.066 633.408 260.133 627.995 257.09C634.379 251.918 640.01 245.648 645.764 239.788L671.898 213.373L693.973 191.295C698.459 186.811 703.589 182.328 707.3 177.175Z"/>
	<path fill="#1EBEFD" transform="scale(0.03125 0.03125)" d="M234.193 555.619C235.475 563.653 236.623 571.798 238.843 579.639C240.747 586.101 242.747 592.552 244.51 599.053C241.474 599.927 238.7 602.929 236.421 605.03C227.411 613.331 219.302 622.509 210.676 631.195Q186.287 655.688 161.395 679.67Q157.521 671.693 154.017 663.547Q149.294 652.571 145.257 641.324C151.409 637.212 156.774 630.233 162.139 625.047Q182.487 605.613 202.458 585.792C212.65 575.603 222.271 563.789 234.193 555.619Z"/>
	<path fill="#10A8FE" transform="scale(0.03125 0.03125)" d="M238.843 579.639C240.747 586.101 242.747 592.552 244.51 599.053C241.474 599.927 238.7 602.929 236.421 605.03C227.411 613.331 219.302 622.509 210.676 631.195Q186.287 655.688 161.395 679.67Q157.521 671.693 154.017 663.547C160.412 659.982 174.206 644.451 180.335 638.239L219.437 598.808C222.549 595.713 237.977 581.874 238.843 579.639Z"/>
	<path fill="#10A8FE" transform="scale(0.03125 0.03125)" d="M734.101 338.986C739.786 335.061 750.146 323.61 755.647 318.12L793.993 280.265C798.736 275.538 804.085 268.687 809.723 265.221Q822.576 280.937 833.715 297.911Q839.074 306.077 844.015 314.503Q850.869 326.19 856.889 338.327Q861.598 347.82 865.78 357.557Q870.594 368.764 874.694 380.252Q877.108 387.016 879.27 393.865Q881.431 400.714 883.337 407.639Q885.244 414.563 886.892 421.553Q888.54 428.544 889.928 435.59Q891.316 442.637 892.442 449.73Q893.568 456.823 894.43 463.953Q895.292 471.083 895.889 478.24Q896.486 485.398 896.818 492.572Q897.15 499.746 897.215 506.928Q897.28 514.11 897.08 521.289Q896.879 528.468 896.412 535.635Q895.945 542.802 895.213 549.946Q894.481 557.091 893.484 564.204Q892.488 571.316 891.228 578.387Q889.969 585.458 888.448 592.477Q886.927 599.496 885.147 606.454Q883.368 613.412 881.331 620.299Q879.295 627.186 877.004 633.993Q874.714 640.8 872.173 647.518Q869.631 654.235 866.843 660.854Q864.054 667.472 861.023 673.983Q857.991 680.494 854.72 686.888Q851.449 693.281 847.943 699.549Q844.437 705.818 840.701 711.952Q836.965 718.086 833.005 724.077Q829.044 730.068 824.864 735.908Q820.684 741.749 816.291 747.43Q811.897 753.111 807.296 758.626Q802.695 764.141 797.893 769.481Q793.09 774.821 788.093 779.98Q783.096 785.138 777.911 790.108Q772.726 795.078 767.361 799.852Q761.996 804.626 756.457 809.198Q750.918 813.77 745.214 818.134Q739.509 822.497 733.647 826.646Q727.785 830.796 721.773 834.725Q715.76 838.654 709.607 842.357Q703.453 846.06 697.167 849.533Q690.88 853.006 684.469 856.243Q678.058 859.481 671.532 862.478Q665.005 865.476 658.372 868.229Q651.739 870.983 645.008 873.488Q638.277 875.994 631.458 878.249Q624.639 880.503 617.741 882.503Q610.844 884.503 603.876 886.247Q596.909 887.99 589.882 889.474Q582.855 890.957 575.778 892.179Q568.7 893.401 561.583 894.361Q554.465 895.32 547.317 896.014Q540.168 896.709 532.999 897.138Q525.83 897.567 518.65 897.73Q511.47 897.893 504.288 897.79Q497.107 897.686 489.934 897.317Q482.762 896.948 475.608 896.313Q468.454 895.678 461.329 894.778Q454.203 893.878 447.116 892.715Q440.029 891.552 432.99 890.127Q425.951 888.701 418.969 887.016Q411.987 885.331 405.073 883.389Q398.159 881.446 391.321 879.248Q384.484 877.051 377.733 874.601Q370.981 872.151 364.325 869.453Q357.669 866.755 351.118 863.812Q344.567 860.869 338.129 857.685C347.218 849.764 355.513 840.095 363.828 831.36Q391.099 802.67 417.73 773.385Q421.823 774.771 425.954 776.038Q430.086 777.305 434.252 778.453Q438.418 779.601 442.615 780.628Q446.813 781.656 451.038 782.562Q455.263 783.468 459.513 784.252Q463.762 785.036 468.033 785.697Q472.303 786.358 476.591 786.896Q480.878 787.434 485.18 787.849Q489.481 788.263 493.793 788.553Q498.104 788.844 502.422 789.01Q506.74 789.176 511.061 789.218Q515.382 789.259 519.703 789.176Q524.023 789.094 528.34 788.886Q532.656 788.679 536.965 788.348Q541.273 788.016 545.57 787.561Q549.868 787.106 554.15 786.527Q557.562 786.039 560.962 785.468Q564.361 784.896 567.746 784.242Q571.13 783.587 574.498 782.85Q577.865 782.113 581.214 781.293Q584.562 780.474 587.889 779.572Q591.216 778.671 594.521 777.688Q597.825 776.706 601.104 775.643Q604.383 774.579 607.635 773.436Q610.887 772.293 614.11 771.071Q617.333 769.848 620.526 768.547Q623.718 767.246 626.877 765.867Q630.036 764.488 633.161 763.032Q636.286 761.576 639.374 760.044Q642.462 758.512 645.511 756.905Q648.561 755.297 651.57 753.616Q654.579 751.934 657.547 750.18Q660.514 748.425 663.437 746.598Q666.36 744.771 669.238 742.874Q672.116 740.976 674.946 739.008Q677.776 737.04 680.557 735.003Q683.339 732.967 686.069 730.863Q688.8 728.758 691.478 726.588Q694.156 724.418 696.78 722.182Q699.404 719.947 701.973 717.648Q704.542 715.349 707.053 712.988Q709.565 710.627 712.018 708.205Q714.47 705.783 716.863 703.301Q719.256 700.82 721.588 698.281Q723.919 695.741 726.187 693.146Q728.456 690.55 730.66 687.9Q732.864 685.249 735.003 682.546Q737.141 679.842 739.213 677.087C785.969 614.992 800.488 540.678 789.794 464.578C788.034 456.319 786.374 448.022 784.144 439.874C782.448 433.05 780.272 426.297 778.314 419.54Q772.94 404.586 766.573 390.026C763.295 384.868 760.725 378.765 757.915 373.304C750.624 361.372 742.566 350.106 734.101 338.986Z"/>
	<path fill="#1EBEFD" transform="scale(0.03125 0.03125)" d="M734.101 338.986C739.786 335.061 750.146 323.61 755.647 318.12L793.993 280.265C798.736 275.538 804.085 268.687 809.723 265.221Q822.576 280.937 833.715 297.911Q839.074 306.077 844.015 314.503Q850.869 326.19 856.889 338.327C837.328 358.816 817.051 378.587 797.313 398.893C790.968 405.42 785.456 413.984 778.314 419.54Q772.94 404.586 766.573 390.026C763.295 384.868 760.725 378.765 757.915 373.304C750.624 361.372 742.566 350.106 734.101 338.986Z"/>
	<path fill="#1EBEFD" transform="scale(0.03125 0.03125)" d="M734.101 338.986C739.786 335.061 750.146 323.61 755.647 318.12L793.993 280.265C798.736 275.538 804.085 268.687 809.723 265.221Q822.576 280.937 833.715 297.911C824.648 308.41 813.985 317.221 804.214 327.028Q786.804 344.851 769.003 362.283C765.301 365.908 761.756 369.845 757.915 373.304C750.624 361.372 742.566 350.106 734.101 338.986Z"/>
	<path fill="#10A8FE" transform="scale(0.03125 0.03125)" d="M833.715 297.911Q839.074 306.077 844.015 314.503C835.222 321.406 827.296 330.728 819.419 338.689C803.698 354.577 788.095 370.385 771.5 385.372C770.493 386.281 767.578 389.746 766.573 390.026C763.295 384.868 760.725 378.765 757.915 373.304C761.756 369.845 765.301 365.908 769.003 362.283Q786.804 344.851 804.214 327.028C813.985 317.221 824.648 308.41 833.715 297.911Z"/>
	<path fill="#1EBEFD" transform="scale(0.03125 0.03125)" d="M856.889 338.327Q861.598 347.82 865.78 357.557Q870.594 368.764 874.694 380.252C870.15 385.393 865.019 390.025 860.112 394.819Q849.226 405.524 838.466 416.355C827.367 427.565 816.547 439.044 805.399 450.207C800.702 454.91 795.471 461.14 789.794 464.578C788.034 456.319 786.374 448.022 784.144 439.874C782.448 433.05 780.272 426.297 778.314 419.54C785.456 413.984 790.968 405.42 797.313 398.893C817.051 378.587 837.328 358.816 856.889 338.327Z"/>
	<path fill="#10A8FE" transform="scale(0.03125 0.03125)" d="M856.889 338.327Q861.598 347.82 865.78 357.557C859.688 361.973 785.746 436.009 784.144 439.874C782.448 433.05 780.272 426.297 778.314 419.54C785.456 413.984 790.968 405.42 797.313 398.893C817.051 378.587 837.328 358.816 856.889 338.327Z"/>
	<path fill="#1EBEFD" transform="scale(0.03125 0.03125)" d="M290.136 684.412C299.857 695.577 309.509 706.95 320.486 716.917C327.4 723.194 334.956 728.565 341.997 734.634C353.161 742.443 364.431 749.377 376.333 755.998C381.275 758.227 386.336 760.425 390.98 763.235C399.599 766.956 408.535 771.315 417.73 773.385Q391.099 802.67 363.828 831.36C355.513 840.095 347.218 849.764 338.129 857.685Q325.153 851.268 312.693 843.901Q304.912 839.3 297.354 834.341Q280.666 823.392 265.192 810.786Q251.33 799.493 238.567 786.972Q225.804 774.45 214.249 760.806C218.121 757.843 221.403 753.718 224.771 750.19Q232.094 742.578 239.595 735.14C247.974 726.755 256.324 718.329 264.817 710.059C273.467 701.637 282.124 693.46 290.136 684.412Z"/>
	<path fill="#10A8FE" transform="scale(0.03125 0.03125)" d="M290.136 684.412C299.857 695.577 309.509 706.95 320.486 716.917C327.4 723.194 334.956 728.565 341.997 734.634C316.415 760.055 291.205 785.801 265.192 810.786Q251.33 799.493 238.567 786.972Q225.804 774.45 214.249 760.806C218.121 757.843 221.403 753.718 224.771 750.19Q232.094 742.578 239.595 735.14C247.974 726.755 256.324 718.329 264.817 710.059C273.467 701.637 282.124 693.46 290.136 684.412Z"/>
	<path fill="#1EBEFD" transform="scale(0.03125 0.03125)" d="M265.192 810.786C291.205 785.801 316.415 760.055 341.997 734.634C353.161 742.443 364.431 749.377 376.333 755.998Q354.017 778.091 332.207 800.683C323.361 809.797 307.757 827.988 297.354 834.341Q280.666 823.392 265.192 810.786Z"/>
	<path fill="#10A8FE" transform="scale(0.03125 0.03125)" d="M376.333 755.998C381.275 758.227 386.336 760.425 390.98 763.235C365.376 790.552 338.637 816.904 312.693 843.901Q304.912 839.3 297.354 834.341C307.757 827.988 323.361 809.797 332.207 800.683Q354.017 778.091 376.333 755.998Z"/>
	<path fill="#FEFEFE" transform="scale(0.03125 0.03125)" d="M436.014 306.495L500.952 306.474C514.677 306.454 528.589 305.729 542.274 306.903Q543.842 307.044 545.407 307.22Q546.972 307.395 548.533 307.605Q550.094 307.814 551.649 308.058Q553.205 308.301 554.755 308.579Q556.306 308.856 557.849 309.167Q559.393 309.478 560.93 309.822Q562.466 310.167 563.995 310.545Q565.524 310.923 567.044 311.334Q568.564 311.745 570.075 312.189Q571.585 312.633 573.086 313.11Q574.587 313.587 576.077 314.096Q577.567 314.606 579.046 315.147Q580.524 315.689 581.991 316.263Q583.457 316.837 584.911 317.443Q586.364 318.048 587.805 318.685Q589.245 319.323 590.67 319.991Q592.096 320.659 593.507 321.359Q594.918 322.058 596.314 322.788Q597.709 323.517 599.088 324.277Q600.467 325.037 601.83 325.827Q603.192 326.617 604.537 327.437Q605.882 328.256 607.208 329.104Q608.535 329.953 609.843 330.83Q611.15 331.707 612.439 332.612Q613.727 333.518 614.996 334.451Q616.264 335.384 617.512 336.345Q618.76 337.306 619.986 338.293Q621.213 339.281 622.418 340.295Q623.622 341.309 624.805 342.349Q625.987 343.389 627.147 344.454Q628.306 345.52 629.442 346.611Q630.578 347.701 631.69 348.816Q632.943 350.068 634.165 351.35Q635.388 352.633 636.578 353.945Q637.769 355.256 638.927 356.597Q640.085 357.938 641.21 359.306Q642.335 360.674 643.426 362.07Q644.517 363.465 645.574 364.887Q646.631 366.309 647.653 367.756Q648.674 369.203 649.66 370.675Q650.646 372.147 651.596 373.642Q652.546 375.138 653.459 376.656Q654.372 378.174 655.247 379.714Q656.123 381.254 656.961 382.815Q657.798 384.376 658.597 385.957Q659.397 387.538 660.157 389.138Q660.917 390.738 661.639 392.356Q662.36 393.974 663.041 395.61Q663.722 397.245 664.363 398.896Q665.004 400.548 665.605 402.214Q666.206 403.881 666.765 405.562Q667.325 407.243 667.843 408.937Q668.362 410.631 668.839 412.337Q669.315 414.043 669.75 415.76Q670.185 417.477 670.578 419.205Q670.971 420.932 671.322 422.669Q671.672 424.405 671.98 426.15Q672.288 427.894 672.554 429.646Q672.819 431.397 673.041 433.155Q673.264 434.912 673.443 436.675Q673.622 438.437 673.759 440.203Q673.895 441.97 673.988 443.739Q674.081 445.508 674.131 447.279Q674.181 449.049 674.187 450.821Q674.185 452.521 674.141 454.219Q674.097 455.918 674.011 457.616Q673.925 459.313 673.797 461.008Q673.669 462.702 673.499 464.393Q673.329 466.084 673.118 467.77Q672.906 469.457 672.653 471.137Q672.399 472.818 672.105 474.491Q671.81 476.165 671.474 477.831Q671.137 479.497 670.76 481.154Q670.383 482.811 669.965 484.458Q669.547 486.106 669.088 487.742Q668.629 489.378 668.13 491.003Q667.631 492.627 667.092 494.239Q666.552 495.851 665.974 497.449Q665.395 499.047 664.777 500.63Q664.158 502.213 663.501 503.78Q662.844 505.347 662.148 506.898Q661.452 508.448 660.718 509.981Q659.984 511.514 659.213 513.028Q658.441 514.542 657.632 516.037Q656.823 517.532 655.978 519.006Q655.132 520.48 654.25 521.933Q653.369 523.386 652.451 524.816Q651.534 526.247 650.581 527.654Q649.628 529.061 648.641 530.445Q647.654 531.828 646.633 533.187Q645.612 534.545 644.558 535.878Q643.503 537.211 642.416 538.518Q641.329 539.824 640.21 541.103Q639.091 542.382 637.941 543.633Q636.791 544.884 635.61 546.106Q634.429 547.328 633.218 548.521Q629.453 552.243 625.407 555.657Q621.36 559.071 617.058 562.156Q612.755 565.241 608.223 567.978Q603.691 570.715 598.958 573.086C561.89 591.716 526.985 586.785 487.3 587.427L487.368 610.577L588.167 610.486Q584.187 615.815 579.993 620.978C585.444 623.227 596.262 621.981 602.504 621.981Q589.852 638.699 576.626 654.966C558.813 655.078 540.969 655.209 523.159 654.972C516.051 654.878 508.945 654.258 501.839 654.285C500.091 661.97 501.153 671.257 501.044 679.135Q500.47 705.264 500.421 731.399C480.96 730.425 461.437 731.504 441.968 731.571C441.932 727.064 442.253 722.2 441.505 717.759L436.062 717.571Q435.853 685.402 435.994 653.235C428.329 655.581 418.675 653.999 410.632 654.199C403.13 654.385 395.662 655.058 388.151 655.004C387.949 650.486 387.625 645.688 388.571 641.245L381.456 641.246L381.503 610.591C399.671 610.378 417.86 610.532 436.031 610.508L436.01 600.16C435.95 600.176 435.89 600.191 435.83 600.207C428.197 602.324 402.372 601.161 392.996 601.059Q376.297 600.908 359.601 601.232C360.844 596.58 362.571 592.041 364.164 587.499L351.617 587.485C363.266 572.186 373.543 555.634 384.885 540.066C391.675 539.19 398.697 539.478 405.535 539.466Q420.834 539.589 436.124 539.057C436.378 534.296 436.256 529.482 436.271 524.713C436.331 522.932 436.141 521.081 436.066 519.297C433.945 519.025 431.826 518.998 429.692 518.942C422.286 518.012 414.385 518.744 406.937 519.032C406.773 508.854 406.498 498.672 406.926 488.498L436.026 488.698L436.014 306.495Z"/>
	<path fill="#0046FE" transform="scale(0.03125 0.03125)" d="M579.993 620.978C585.444 623.227 596.262 621.981 602.504 621.981Q589.852 638.699 576.626 654.966C558.813 655.078 540.969 655.209 523.159 654.972C516.051 654.878 508.945 654.258 501.839 654.285C500.091 661.97 501.153 671.257 501.044 679.135Q500.47 705.264 500.421 731.399C480.96 730.425 461.437 731.504 441.968 731.571C441.932 727.064 442.253 722.2 441.505 717.759Q464.522 718.019 487.541 717.912L487.503 640.575C512.509 641.668 537.703 641.01 562.736 640.945L579.993 620.978Z"/>
	<path fill="#0046FE" transform="scale(0.03125 0.03125)" d="M364.164 587.499L435.912 587.508L436.01 600.16C435.95 600.176 435.89 600.191 435.83 600.207C428.197 602.324 402.372 601.161 392.996 601.059Q376.297 600.908 359.601 601.232C360.844 596.58 362.571 592.041 364.164 587.499Z"/>
	<path fill="#0046FE" transform="scale(0.03125 0.03125)" d="M388.571 641.245Q412.28 640.906 435.992 640.93L435.994 653.235C428.329 655.581 418.675 653.999 410.632 654.199C403.13 654.385 395.662 655.058 388.151 655.004C387.949 650.486 387.625 645.688 388.571 641.245Z"/>
	<path fill="#4894FF" transform="scale(0.03125 0.03125)" d="M487.467 357.016Q504.862 356.695 522.26 356.858C552.74 357.21 575.377 365.273 596.936 387.323C614.227 408.653 624.239 433.415 621.302 461.226C618.859 484.349 606.427 506.495 588.32 520.995C567.268 537.853 545.796 538.453 520.079 538.759C509.983 538.879 499.803 539.15 489.715 538.751C488.666 538.814 488.784 538.747 487.953 538.252C485.796 533.22 487.151 524.596 487.485 519.112C497.946 518.712 508.547 518.99 519.025 518.952Q527.863 508.451 537.425 498.604C540.516 495.333 543.461 491.918 546.442 488.547C531.479 488.431 516.44 488.298 501.486 488.825C496.842 489.018 492.165 488.949 487.516 488.987L487.467 357.016Z"/>
	<path fill="#0046FE" transform="scale(0.03125 0.03125)" d="M487.467 357.016Q504.862 356.695 522.26 356.858C552.74 357.21 575.377 365.273 596.936 387.323C595.671 388.063 595.058 388.605 593.522 388.376C590.231 387.887 585.545 383.567 582.453 381.885Q577.852 379.383 572.912 377.646C551.982 370.317 523.779 371.655 501.822 372.473L502.095 455.052C502.103 462.452 503.141 483.097 501.486 488.825C496.842 489.018 492.165 488.949 487.516 488.987L487.467 357.016Z"/>
	<path fill="#0046FE" transform="scale(0.03125 0.03125)" d="M519.025 518.952Q527.863 508.451 537.425 498.604C544.456 500.889 554.387 499.567 561.796 499.432C551.538 509.804 542.601 521.514 532.111 531.606C522.105 531.86 512.072 531.62 502.064 531.526L501.837 538.331C497.888 538.315 493.59 537.957 489.715 538.751C488.666 538.814 488.784 538.747 487.953 538.252C485.796 533.22 487.151 524.596 487.485 519.112C497.946 518.712 508.547 518.99 519.025 518.952Z"/>
	<path fill="#0046FE" transform="scale(0.03125 0.03125)" d="M429.692 518.942C431.826 518.998 433.945 519.025 436.066 519.297C436.141 521.081 436.331 522.932 436.271 524.713C435.588 527.251 435.806 530.11 435.773 532.729C429.661 533.303 423.591 533.145 417.463 533.042L417.885 519.23C421.823 519.244 425.768 519.331 429.692 518.942Z"/>
</svg>
